<?xml version="1.0" encoding="utf-8" standalone="no"?>
<!DOCTYPE svg PUBLIC "-//W3C//DTD SVG 1.1//EN"
  "http://www.w3.org/Graphics/SVG/1.1/DTD/svg11.dtd">
<svg xmlns:xlink="http://www.w3.org/1999/xlink" width="490.6317pt" height="150.143209pt" viewBox="0 0 490.6317 150.143209" xmlns="http://www.w3.org/2000/svg" version="1.1">
 <metadata>
  <rdf:RDF xmlns:dc="http://purl.org/dc/elements/1.1/" xmlns:cc="http://creativecommons.org/ns#" xmlns:rdf="http://www.w3.org/1999/02/22-rdf-syntax-ns#">
   <cc:Work>
    <dc:type rdf:resource="http://purl.org/dc/dcmitype/StillImage"/>
    <dc:date>2026-09-30T02:54:43.109879</dc:date>
    <dc:format>image/svg+xml</dc:format>
    <dc:creator>
     <cc:Agent>
      <dc:title>Matplotlib v3.10.7, https://matplotlib.org/</dc:title>
     </cc:Agent>
    </dc:creator>
   </cc:Work>
  </rdf:RDF>
 </metadata>
 <defs>
  <style type="text/css">*{stroke-linejoin: round; stroke-linecap: butt}</style>
 </defs>
 <g id="figure_1">
  <g id="patch_1">
   <path d="M 0 150.143209 
L 490.6317 150.143209 
L 490.6317 0 
L 0 0 
z
" style="fill: #ffffff"/>
  </g>
  <g id="axes_1">
   <g id="patch_2">
    <path d="M 95.725625 120.886959 
L 225.915693 120.886959 
L 225.915693 18.596614 
L 95.725625 18.596614 
z
" style="fill: #ffffff"/>
   </g>
   <g id="matplotlib.axis_1">
    <g id="xtick_1">
     <g id="line2d_1">
      <defs>
       <path id="m85febfca57" d="M 0 0 
L 0 2.5 
" style="stroke: #000000; stroke-width: 0.6"/>
      </defs>
      <g>
       <use xlink:href="#m85febfca57" x="95.725625" y="120.886959" style="stroke: #000000; stroke-width: 0.6"/>
      </g>
     </g>
     <g id="text_1">
      <text style="font-size: 6px; font-family: 'Arial', 'Helvetica', 'DejaVu Sans', sans-serif; text-anchor: middle" x="95.725625" y="131.181647" transform="rotate(-0 95.725625 131.181647)">0.000</text>
     </g>
    </g>
    <g id="xtick_2">
     <g id="line2d_2">
      <g>
       <use xlink:href="#m85febfca57" x="116.067823" y="120.886959" style="stroke: #000000; stroke-width: 0.6"/>
      </g>
     </g>
     <g id="text_2">
      <text style="font-size: 6px; font-family: 'Arial', 'Helvetica', 'DejaVu Sans', sans-serif; text-anchor: middle" x="116.067823" y="131.181647" transform="rotate(-0 116.067823 131.181647)">0.025</text>
     </g>
    </g>
    <g id="xtick_3">
     <g id="line2d_3">
      <g>
       <use xlink:href="#m85febfca57" x="136.410021" y="120.886959" style="stroke: #000000; stroke-width: 0.6"/>
      </g>
     </g>
     <g id="text_3">
      <text style="font-size: 6px; font-family: 'Arial', 'Helvetica', 'DejaVu Sans', sans-serif; text-anchor: middle" x="136.410021" y="131.181647" transform="rotate(-0 136.410021 131.181647)">0.050</text>
     </g>
    </g>
    <g id="xtick_4">
     <g id="line2d_4">
      <g>
       <use xlink:href="#m85febfca57" x="156.752219" y="120.886959" style="stroke: #000000; stroke-width: 0.6"/>
      </g>
     </g>
     <g id="text_4">
      <text style="font-size: 6px; font-family: 'Arial', 'Helvetica', 'DejaVu Sans', sans-serif; text-anchor: middle" x="156.752219" y="131.181647" transform="rotate(-0 156.752219 131.181647)">0.075</text>
     </g>
    </g>
    <g id="xtick_5">
     <g id="line2d_5">
      <g>
       <use xlink:href="#m85febfca57" x="177.094418" y="120.886959" style="stroke: #000000; stroke-width: 0.6"/>
      </g>
     </g>
     <g id="text_5">
      <text style="font-size: 6px; font-family: 'Arial', 'Helvetica', 'DejaVu Sans', sans-serif; text-anchor: middle" x="177.094418" y="131.181647" transform="rotate(-0 177.094418 131.181647)">0.100</text>
     </g>
    </g>
    <g id="xtick_6">
     <g id="line2d_6">
      <g>
       <use xlink:href="#m85febfca57" x="197.436616" y="120.886959" style="stroke: #000000; stroke-width: 0.6"/>
      </g>
     </g>
     <g id="text_6">
      <text style="font-size: 6px; font-family: 'Arial', 'Helvetica', 'DejaVu Sans', sans-serif; text-anchor: middle" x="197.436616" y="131.181647" transform="rotate(-0 197.436616 131.181647)">0.125</text>
     </g>
    </g>
    <g id="xtick_7">
     <g id="line2d_7">
      <g>
       <use xlink:href="#m85febfca57" x="217.778814" y="120.886959" style="stroke: #000000; stroke-width: 0.6"/>
      </g>
     </g>
     <g id="text_7">
      <text style="font-size: 6px; font-family: 'Arial', 'Helvetica', 'DejaVu Sans', sans-serif; text-anchor: middle" x="217.778814" y="131.181647" transform="rotate(-0 217.778814 131.181647)">0.150</text>
     </g>
    </g>
    <g id="text_8">
     <text style="font-size: 7px; font-family: 'Arial', 'Helvetica', 'DejaVu Sans', sans-serif; text-anchor: middle" x="160.820659" y="141.469928" transform="rotate(-0 160.820659 141.469928)">Residual Pearson (macro over 4,447 genes)</text>
    </g>
   </g>
   <g id="matplotlib.axis_2">
    <g id="ytick_1">
     <g id="line2d_8"/>
     <g id="text_9">
      <text style="font-size: 6px; font-family: 'Arial', 'Helvetica', 'DejaVu Sans', sans-serif; text-anchor: end" x="92.225625" y="37.395874" transform="rotate(-0 92.225625 37.395874)">Explicit context slope</text>
     </g>
    </g>
    <g id="ytick_2">
     <g id="line2d_9"/>
     <g id="text_10">
      <text style="font-size: 6px; font-family: 'Arial', 'Helvetica', 'DejaVu Sans', sans-serif; text-anchor: end" x="92.225625" y="61.220889" transform="rotate(-0 92.225625 61.220889)">Context-PCA ridge (Tx1, 8 PCs)</text>
     </g>
    </g>
    <g id="ytick_3">
     <g id="line2d_10"/>
     <g id="text_11">
      <text style="font-size: 6px; font-family: 'Arial', 'Helvetica', 'DejaVu Sans', sans-serif; text-anchor: end" x="92.225625" y="84.972779" transform="rotate(-0 92.225625 84.972779)">Shared MLP</text>
     </g>
    </g>
    <g id="ytick_4">
     <g id="line2d_11"/>
     <g id="text_12">
      <text style="font-size: 6px; font-family: 'Arial', 'Helvetica', 'DejaVu Sans', sans-serif; text-anchor: end" x="92.225625" y="108.761232" transform="rotate(-0 92.225625 108.761232)">Joint backbone readout</text>
     </g>
    </g>
   </g>
   <g id="LineCollection_1">
    <path d="M 95.725625 35.248531 
L 202.735952 35.248531 
" clip-path="url(#p2a05212581)" style="fill: none; stroke: #0f4d92; stroke-opacity: 0.5; stroke-width: 0.8"/>
   </g>
   <g id="line2d_12">
    <defs>
     <path id="me22e1cb5e8" d="M 0 2 
C 0.530406 2 1.03916 1.789267 1.414214 1.414214 
C 1.789267 1.03916 2 0.530406 2 0 
C 2 -0.530406 1.789267 -1.03916 1.414214 -1.414214 
C 1.03916 -1.789267 0.530406 -2 0 -2 
C -0.530406 -2 -1.03916 -1.789267 -1.414214 -1.414214 
C -1.789267 -1.03916 -2 -0.530406 -2 0 
C -2 0.530406 -1.789267 1.03916 -1.414214 1.414214 
C -1.03916 1.789267 -0.530406 2 0 2 
z
" style="stroke: #0f4d92"/>
    </defs>
    <g clip-path="url(#p2a05212581)">
     <use xlink:href="#me22e1cb5e8" x="202.735952" y="35.248531" style="fill: #0f4d92; stroke: #0f4d92"/>
    </g>
   </g>
   <g id="LineCollection_2">
    <path d="M 95.725625 59.036983 
L 203.924479 59.036983 
" clip-path="url(#p2a05212581)" style="fill: none; stroke: #42949e; stroke-opacity: 0.5; stroke-width: 0.8"/>
   </g>
   <g id="line2d_13">
    <defs>
     <path id="m6644e6c50a" d="M 0 2 
C 0.530406 2 1.03916 1.789267 1.414214 1.414214 
C 1.789267 1.03916 2 0.530406 2 0 
C 2 -0.530406 1.789267 -1.03916 1.414214 -1.414214 
C 1.03916 -1.789267 0.530406 -2 0 -2 
C -0.530406 -2 -1.03916 -1.789267 -1.414214 -1.414214 
C -1.789267 -1.03916 -2 -0.530406 -2 0 
C -2 0.530406 -1.789267 1.03916 -1.414214 1.414214 
C -1.03916 1.789267 -0.530406 2 0 2 
z
" style="stroke: #42949e"/>
    </defs>
    <g clip-path="url(#p2a05212581)">
     <use xlink:href="#m6644e6c50a" x="203.924479" y="59.036983" style="fill: #42949e; stroke: #42949e"/>
    </g>
   </g>
   <g id="LineCollection_3">
    <path d="M 95.725625 82.825435 
L 135.978276 82.825435 
" clip-path="url(#p2a05212581)" style="fill: none; stroke: #767676; stroke-opacity: 0.5; stroke-width: 0.8"/>
   </g>
   <g id="line2d_14">
    <defs>
     <path id="m59569f2742" d="M 0 2 
C 0.530406 2 1.03916 1.789267 1.414214 1.414214 
C 1.789267 1.03916 2 0.530406 2 0 
C 2 -0.530406 1.789267 -1.03916 1.414214 -1.414214 
C 1.03916 -1.789267 0.530406 -2 0 -2 
C -0.530406 -2 -1.03916 -1.789267 -1.414214 -1.414214 
C -1.789267 -1.03916 -2 -0.530406 -2 0 
C -2 0.530406 -1.789267 1.03916 -1.414214 1.414214 
C -1.03916 1.789267 -0.530406 2 0 2 
z
" style="stroke: #767676"/>
    </defs>
    <g clip-path="url(#p2a05212581)">
     <use xlink:href="#m59569f2742" x="135.978276" y="82.825435" style="fill: #767676; stroke: #767676"/>
    </g>
   </g>
   <g id="LineCollection_4">
    <path d="M 95.725625 106.613888 
L 128.621259 106.613888 
" clip-path="url(#p2a05212581)" style="fill: none; stroke: #272727; stroke-opacity: 0.5; stroke-width: 0.8"/>
   </g>
   <g id="line2d_15">
    <defs>
     <path id="m10b55e40dd" d="M 0 2 
C 0.530406 2 1.03916 1.789267 1.414214 1.414214 
C 1.789267 1.03916 2 0.530406 2 0 
C 2 -0.530406 1.789267 -1.03916 1.414214 -1.414214 
C 1.03916 -1.789267 0.530406 -2 0 -2 
C -0.530406 -2 -1.03916 -1.789267 -1.414214 -1.414214 
C -1.789267 -1.03916 -2 -0.530406 -2 0 
C -2 0.530406 -1.789267 1.03916 -1.414214 1.414214 
C -1.03916 1.789267 -0.530406 2 0 2 
z
" style="stroke: #272727"/>
    </defs>
    <g clip-path="url(#p2a05212581)">
     <use xlink:href="#m10b55e40dd" x="128.621259" y="106.613888" style="fill: #272727; stroke: #272727"/>
    </g>
   </g>
   <g id="line2d_16">
    <defs>
     <path id="m3a9009c670" d="M 0 1.6 
C 0.424325 1.6 0.831328 1.431414 1.131371 1.131371 
C 1.431414 0.831328 1.6 0.424325 1.6 0 
C 1.6 -0.424325 1.431414 -0.831328 1.131371 -1.131371 
C 0.831328 -1.431414 0.424325 -1.6 0 -1.6 
C -0.424325 -1.6 -0.831328 -1.431414 -1.131371 -1.131371 
C -1.431414 -0.831328 -1.6 -0.424325 -1.6 0 
C -1.6 0.424325 -1.431414 0.831328 -1.131371 1.131371 
C -0.831328 1.431414 -0.424325 1.6 0 1.6 
z
" style="stroke: #0f4d92; stroke-width: 0.7"/>
    </defs>
    <g clip-path="url(#p2a05212581)">
     <use xlink:href="#m3a9009c670" x="203.810586" y="35.248531" style="fill: #ffffff; stroke: #0f4d92; stroke-width: 0.7"/>
     <use xlink:href="#m3a9009c670" x="205.076043" y="35.248531" style="fill: #ffffff; stroke: #0f4d92; stroke-width: 0.7"/>
    </g>
   </g>
   <g id="line2d_17">
    <defs>
     <path id="m81592d9cd0" d="M 0 1.6 
C 0.424325 1.6 0.831328 1.431414 1.131371 1.131371 
C 1.431414 0.831328 1.6 0.424325 1.6 0 
C 1.6 -0.424325 1.431414 -0.831328 1.131371 -1.131371 
C 0.831328 -1.431414 0.424325 -1.6 0 -1.6 
C -0.424325 -1.6 -0.831328 -1.431414 -1.131371 -1.131371 
C -1.431414 -0.831328 -1.6 -0.424325 -1.6 0 
C -1.6 0.424325 -1.431414 0.831328 -1.131371 1.131371 
C -0.831328 1.431414 -0.424325 1.6 0 1.6 
z
" style="stroke: #767676; stroke-width: 0.7"/>
    </defs>
    <g clip-path="url(#p2a05212581)">
     <use xlink:href="#m81592d9cd0" x="145.963342" y="82.825435" style="fill: #ffffff; stroke: #767676; stroke-width: 0.7"/>
     <use xlink:href="#m81592d9cd0" x="139.81426" y="82.825435" style="fill: #ffffff; stroke: #767676; stroke-width: 0.7"/>
    </g>
   </g>
   <g id="line2d_18"/>
   <g id="patch_3">
    <path d="M 95.725625 120.886959 
L 225.915693 120.886959 
" style="fill: none; stroke: #000000; stroke-width: 0.6; stroke-linejoin: miter; stroke-linecap: square"/>
   </g>
   <g id="text_13">
    <text style="font-size: 5.5px; font-family: 'Arial', 'Helvetica', 'DejaVu Sans', sans-serif; text-anchor: middle; fill: #0f4d92" x="202.735952" y="27.01887" transform="rotate(-0 202.735952 27.01887)">0.132</text>
   </g>
   <g id="text_14">
    <text style="font-size: 5.5px; font-family: 'Arial', 'Helvetica', 'DejaVu Sans', sans-serif; text-anchor: middle; fill: #42949e" x="203.924479" y="50.807322" transform="rotate(-0 203.924479 50.807322)">0.133</text>
   </g>
   <g id="text_15">
    <text style="font-size: 5.5px; font-family: 'Arial', 'Helvetica', 'DejaVu Sans', sans-serif; text-anchor: middle; fill: #767676" x="135.978276" y="74.595775" transform="rotate(-0 135.978276 74.595775)">0.049</text>
   </g>
   <g id="text_16">
    <text style="font-size: 5.5px; font-family: 'Arial', 'Helvetica', 'DejaVu Sans', sans-serif; text-anchor: middle; fill: #272727" x="128.621259" y="98.384227" transform="rotate(-0 128.621259 98.384227)">0.040</text>
   </g>
   <g id="text_17">
    <text style="font-weight: 700; font-size: 8px; font-family: 'Arial', 'Helvetica', 'DejaVu Sans', sans-serif; text-anchor: end" x="93.121824" y="12.92625" transform="rotate(-0 93.121824 12.92625)">a</text>
   </g>
   <g id="text_18">
    <text style="font-size: 7px; font-family: 'Arial', 'Helvetica', 'DejaVu Sans', sans-serif; text-anchor: start" x="95.725625" y="12.596614" transform="rotate(-0 95.725625 12.596614)">Context signal on 27 validation lines</text>
   </g>
   <g id="legend_1">
    <g id="line2d_19">
     <g>
      <use xlink:href="#m81592d9cd0" x="170.019131" y="112.194459" style="fill: #ffffff; stroke: #767676; stroke-width: 0.7"/>
     </g>
    </g>
    <g id="text_19">
     <text style="font-size: 6px; font-family: 'Arial', 'Helvetica', 'DejaVu Sans', sans-serif; text-anchor: start" x="177.819131" y="114.294459" transform="rotate(-0 177.819131 114.294459)">head seeds 1, 2</text>
    </g>
   </g>
  </g>
  <g id="axes_2">
   <g id="patch_4">
    <path d="M 318.306173 120.886959 
L 461.515248 120.886959 
L 461.515248 18.596614 
L 318.306173 18.596614 
z
" style="fill: #ffffff"/>
   </g>
   <g id="line2d_20">
    <path d="M 339.787534 120.886959 
L 339.787534 18.596614 
" clip-path="url(#p82fa4be753)" style="fill: none; stroke: #9a9a9a; stroke-width: 0.6; stroke-linecap: square"/>
   </g>
   <g id="matplotlib.axis_3">
    <g id="xtick_8">
     <g id="line2d_21">
      <g>
       <use xlink:href="#m85febfca57" x="339.787534" y="120.886959" style="stroke: #000000; stroke-width: 0.6"/>
      </g>
     </g>
     <g id="text_20">
      <text style="font-size: 6px; font-family: 'Arial', 'Helvetica', 'DejaVu Sans', sans-serif; text-anchor: middle" x="339.787534" y="131.181647" transform="rotate(-0 339.787534 131.181647)">0.00</text>
     </g>
    </g>
    <g id="xtick_9">
     <g id="line2d_22">
      <g>
       <use xlink:href="#m85febfca57" x="375.589803" y="120.886959" style="stroke: #000000; stroke-width: 0.6"/>
      </g>
     </g>
     <g id="text_21">
      <text style="font-size: 6px; font-family: 'Arial', 'Helvetica', 'DejaVu Sans', sans-serif; text-anchor: middle" x="375.589803" y="131.181647" transform="rotate(-0 375.589803 131.181647)">0.05</text>
     </g>
    </g>
    <g id="xtick_10">
     <g id="line2d_23">
      <g>
       <use xlink:href="#m85febfca57" x="411.392072" y="120.886959" style="stroke: #000000; stroke-width: 0.6"/>
      </g>
     </g>
     <g id="text_22">
      <text style="font-size: 6px; font-family: 'Arial', 'Helvetica', 'DejaVu Sans', sans-serif; text-anchor: middle" x="411.392072" y="131.181647" transform="rotate(-0 411.392072 131.181647)">0.10</text>
     </g>
    </g>
    <g id="xtick_11">
     <g id="line2d_24">
      <g>
       <use xlink:href="#m85febfca57" x="447.194341" y="120.886959" style="stroke: #000000; stroke-width: 0.6"/>
      </g>
     </g>
     <g id="text_23">
      <text style="font-size: 6px; font-family: 'Arial', 'Helvetica', 'DejaVu Sans', sans-serif; text-anchor: middle" x="447.194341" y="131.181647" transform="rotate(-0 447.194341 131.181647)">0.15</text>
     </g>
    </g>
    <g id="text_24">
     <text style="font-size: 7px; font-family: 'Arial', 'Helvetica', 'DejaVu Sans', sans-serif; text-anchor: middle" x="389.910711" y="141.469928" transform="rotate(-0 389.910711 141.469928)">Difference in residual Pearson (95% paired bootstrap)</text>
    </g>
   </g>
   <g id="matplotlib.axis_4">
    <g id="ytick_5">
     <g id="line2d_25"/>
     <g id="text_25">
      <text style="font-size: 6px; font-family: 'Arial', 'Helvetica', 'DejaVu Sans', sans-serif; text-anchor: end" x="314.806173" y="39.95996" transform="rotate(-0 314.806173 39.95996)">Slope − shared MLP</text>
     </g>
    </g>
    <g id="ytick_6">
     <g id="line2d_26"/>
     <g id="text_26">
      <text style="font-size: 6px; font-family: 'Arial', 'Helvetica', 'DejaVu Sans', sans-serif; text-anchor: end" x="314.806173" y="71.925693" transform="rotate(-0 314.806173 71.925693)">Slope − joint backbone readout</text>
     </g>
    </g>
    <g id="ytick_7">
     <g id="line2d_27"/>
     <g id="text_27">
      <text style="font-size: 6px; font-family: 'Arial', 'Helvetica', 'DejaVu Sans', sans-serif; text-anchor: end" x="314.806173" y="103.891426" transform="rotate(-0 314.806173 103.891426)">Slope − context-PCA ridge</text>
     </g>
    </g>
   </g>
   <g id="LineCollection_5">
    <path d="M 381.071643 37.776054 
L 414.776442 37.776054 
" clip-path="url(#p82fa4be753)" style="fill: none; stroke: #0f4d92; stroke-width: 1.4"/>
   </g>
   <g id="line2d_28">
    <defs>
     <path id="mbd3cb13c5e" d="M 0 2.25 
C 0.596707 2.25 1.169055 2.012926 1.59099 1.59099 
C 2.012926 1.169055 2.25 0.596707 2.25 0 
C 2.25 -0.596707 2.012926 -1.169055 1.59099 -1.59099 
C 1.169055 -2.012926 0.596707 -2.25 0 -2.25 
C -0.596707 -2.25 -1.169055 -2.012926 -1.59099 -1.59099 
C -2.012926 -1.169055 -2.25 -0.596707 -2.25 0 
C -2.25 0.596707 -2.012926 1.169055 -1.59099 1.59099 
C -1.169055 2.012926 -0.596707 2.25 0 2.25 
z
" style="stroke: #0f4d92"/>
    </defs>
    <g clip-path="url(#p82fa4be753)">
     <use xlink:href="#mbd3cb13c5e" x="398.53429" y="37.776054" style="fill: #0f4d92; stroke: #0f4d92"/>
    </g>
   </g>
   <g id="LineCollection_6">
    <path d="M 387.104756 69.741787 
L 422.410175 69.741787 
" clip-path="url(#p82fa4be753)" style="fill: none; stroke: #0f4d92; stroke-width: 1.4"/>
   </g>
   <g id="line2d_29">
    <g clip-path="url(#p82fa4be753)">
     <use xlink:href="#mbd3cb13c5e" x="405.008465" y="69.741787" style="fill: #0f4d92; stroke: #0f4d92"/>
    </g>
   </g>
   <g id="LineCollection_7">
    <path d="M 328.836359 101.70752 
L 351.169593 101.70752 
" clip-path="url(#p82fa4be753)" style="fill: none; stroke: #42949e; stroke-width: 1.4"/>
   </g>
   <g id="line2d_30">
    <defs>
     <path id="mf3f723e043" d="M 0 2.25 
C 0.596707 2.25 1.169055 2.012926 1.59099 1.59099 
C 2.012926 1.169055 2.25 0.596707 2.25 0 
C 2.25 -0.596707 2.012926 -1.169055 1.59099 -1.59099 
C 1.169055 -2.012926 0.596707 -2.25 0 -2.25 
C -0.596707 -2.25 -1.169055 -2.012926 -1.59099 -1.59099 
C -2.012926 -1.169055 -2.25 -0.596707 -2.25 0 
C -2.25 0.596707 -2.012926 1.169055 -1.59099 1.59099 
C -1.169055 2.012926 -0.596707 2.25 0 2.25 
z
" style="stroke: #42949e"/>
    </defs>
    <g clip-path="url(#p82fa4be753)">
     <use xlink:href="#mf3f723e043" x="338.741631" y="101.70752" style="fill: #42949e; stroke: #42949e"/>
    </g>
   </g>
   <g id="patch_5">
    <path d="M 318.306173 120.886959 
L 461.515248 120.886959 
" style="fill: none; stroke: #000000; stroke-width: 0.6; stroke-linejoin: miter; stroke-linecap: square"/>
   </g>
   <g id="text_28">
    <text style="font-size: 5.5px; font-family: 'Arial', 'Helvetica', 'DejaVu Sans', sans-serif; text-anchor: start; fill: #0f4d92" x="417.640624" y="39.206054" transform="rotate(-0 417.640624 39.206054)">+0.082 [+0.058, +0.105]</text>
   </g>
   <g id="text_29">
    <text style="font-size: 5.5px; font-family: 'Arial', 'Helvetica', 'DejaVu Sans', sans-serif; text-anchor: start; fill: #0f4d92" x="425.274357" y="71.171787" transform="rotate(-0 425.274357 71.171787)">+0.091 [+0.066, +0.115]</text>
   </g>
   <g id="text_30">
    <text style="font-size: 5.5px; font-family: 'Arial', 'Helvetica', 'DejaVu Sans', sans-serif; text-anchor: start; fill: #42949e" x="354.033774" y="103.13752" transform="rotate(-0 354.033774 103.13752)">-0.001 [-0.015, +0.016]</text>
   </g>
   <g id="text_31">
    <text style="font-weight: 700; font-size: 8px; font-family: 'Arial', 'Helvetica', 'DejaVu Sans', sans-serif; text-anchor: end" x="315.441992" y="12.92625" transform="rotate(-0 315.441992 12.92625)">b</text>
   </g>
   <g id="text_32">
    <text style="font-size: 7px; font-family: 'Arial', 'Helvetica', 'DejaVu Sans', sans-serif; text-anchor: start" x="318.306173" y="12.596614" transform="rotate(-0 318.306173 12.596614)">Paired differences</text>
   </g>
  </g>
 </g>
 <defs>
  <clipPath id="p2a05212581">
   <rect x="95.725625" y="18.596614" width="130.190068" height="102.290345"/>
  </clipPath>
  <clipPath id="p82fa4be753">
   <rect x="318.306173" y="18.596614" width="143.209075" height="102.290345"/>
  </clipPath>
 </defs>
</svg>
