<svg width="932" height="639" viewBox="0 0 932 639" fill="none" xmlns="http://www.w3.org/2000/svg">
<title>Joint GeneEffect training protocol</title>
<rect width="932" height="639" fill="white"/>
<rect x="24.6" y="24.6" width="266.8" height="328.8" rx="17.4" fill="#FBFBFB"/>
<rect x="24.6" y="24.6" width="266.8" height="328.8" rx="17.4" stroke="#9A9A9A" stroke-width="1.2" stroke-dasharray="8 6"/>
<text fill="#1A1A1A" style="white-space: pre" xml:space="preserve" font-family="Inter" font-size="18" font-weight="bold" letter-spacing="0em"><tspan x="41.2" y="58.7455">Preparation</tspan></text>
<text fill="#3A3A3A" style="white-space: pre" xml:space="preserve" font-family="Inter" font-size="13" letter-spacing="0em"><tspan x="41.2" y="85.9273">once, before any training</tspan></text>
<g clip-path="url(#clip0_24_2)">
<text fill="#1A1A1A" style="white-space: pre" xml:space="preserve" font-family="Inter" font-size="12" font-weight="500" letter-spacing="0em"><tspan x="41.2" y="111.064">embeddings cached</tspan></text>
<g clip-path="url(#clip1_24_2)">
<rect x="41.9" y="118.9" width="42.6" height="22.6" rx="5.3" fill="#E3E3E3"/>
<rect x="41.9" y="118.9" width="42.6" height="22.6" rx="5.3" stroke="#666666" stroke-width="1.4" stroke-dasharray="4 3"/>
<text fill="#1A1A1A" style="white-space: pre" xml:space="preserve" font-family="Inter" font-size="9.5" font-weight="500" letter-spacing="0em"><tspan x="46.7" y="133.655">Tx1-3B</tspan></text>
<rect x="89.9" y="118.9" width="42.6" height="22.6" rx="5.3" fill="#E3E3E3"/>
<rect x="89.9" y="118.9" width="42.6" height="22.6" rx="5.3" stroke="#666666" stroke-width="1.4" stroke-dasharray="4 3"/>
<text fill="#1A1A1A" style="white-space: pre" xml:space="preserve" font-family="Inter" font-size="9.5" font-weight="500" letter-spacing="0em"><tspan x="95.7" y="133.655">ESM-2</tspan></text>
<rect x="137.9" y="118.9" width="42.6" height="22.6" rx="5.3" fill="white"/>
<rect x="137.9" y="118.9" width="42.6" height="22.6" rx="5.3" stroke="#C4C4C4" stroke-width="1.4" stroke-dasharray="2 3"/>
<text fill="#A8A8A8" style="white-space: pre" xml:space="preserve" font-family="Inter" font-size="9.5" font-weight="500" letter-spacing="0em"><tspan x="140.7" y="133.655">Adapter</tspan></text>
<rect x="185.9" y="118.9" width="42.6" height="22.6" rx="5.3" fill="white"/>
<rect x="185.9" y="118.9" width="42.6" height="22.6" rx="5.3" stroke="#C4C4C4" stroke-width="1.4" stroke-dasharray="2 3"/>
<text fill="#A8A8A8" style="white-space: pre" xml:space="preserve" font-family="Inter" font-size="9.5" font-weight="500" letter-spacing="0em"><tspan x="192.2" y="133.655">STATE</tspan></text>
<rect x="233.9" y="118.9" width="42.6" height="22.6" rx="5.3" fill="white"/>
<rect x="233.9" y="118.9" width="42.6" height="22.6" rx="5.3" stroke="#C4C4C4" stroke-width="1.4" stroke-dasharray="2 3"/>
<text fill="#A8A8A8" style="white-space: pre" xml:space="preserve" font-family="Inter" font-size="9.5" font-weight="500" letter-spacing="0em"><tspan x="243.2" y="133.655">Head</tspan></text>
</g>
</g>
<text fill="#1A1A1A" style="white-space: pre" xml:space="preserve" font-family="Inter" font-size="12" font-weight="500" letter-spacing="0em"><tspan x="41.2" y="164.064">fitted on the 172 training lines</tspan></text>
<rect x="41.9" y="177.9" width="232.2" height="29.4" rx="1.3" fill="white"/>
<rect x="41.9" y="177.9" width="232.2" height="29.4" rx="1.3" stroke="#333333" stroke-width="1.4"/>
<text fill="#1A1A1A" style="white-space: pre" xml:space="preserve" font-family="Inter" font-size="13" font-weight="500" letter-spacing="0em"><tspan x="52.6" y="197.327">gene means</tspan></text>
<rect x="41.9" y="218.7" width="232.2" height="57.4" rx="1.3" fill="white"/>
<rect x="41.9" y="218.7" width="232.2" height="57.4" rx="1.3" stroke="#333333" stroke-width="1.4"/>
<text fill="#1A1A1A" style="white-space: pre" xml:space="preserve" font-family="Inter" font-size="13" font-weight="500" letter-spacing="0em"><tspan x="52.6" y="238.127">selective genes</tspan></text>
<text fill="#3A3A3A" style="white-space: pre" xml:space="preserve" font-family="Inter" font-size="11" letter-spacing="0em"><tspan x="52.6" y="253.9">dependent (GeneEffect &#60; &#x2212;0.5) in &#x2265; 5 </tspan><tspan x="52.6" y="266.9">and &#60; 90% of lines</tspan></text>
<rect x="41.9" y="287.5" width="232.2" height="29.4" rx="1.3" fill="white"/>
<rect x="41.9" y="287.5" width="232.2" height="29.4" rx="1.3" stroke="#333333" stroke-width="1.4"/>
<text fill="#1A1A1A" style="white-space: pre" xml:space="preserve" font-family="Inter" font-size="13" font-weight="500" letter-spacing="0em"><tspan x="52.6" y="306.927">per-gene residual SD</tspan></text>
<rect x="332.6" y="24.6" width="266.8" height="328.8" rx="17.4" fill="#FBFBFB"/>
<rect x="332.6" y="24.6" width="266.8" height="328.8" rx="17.4" stroke="#9A9A9A" stroke-width="1.2" stroke-dasharray="8 6"/>
<text fill="#1A1A1A" style="white-space: pre" xml:space="preserve" font-family="Inter" font-size="18" font-weight="bold" letter-spacing="0em"><tspan x="349.2" y="58.7455">Objective screen</tspan></text>
<text fill="#3A3A3A" style="white-space: pre" xml:space="preserve" font-family="Inter" font-size="13" letter-spacing="0em"><tspan x="349.2" y="85.9273">STATE frozen, three objectives</tspan></text>
<g clip-path="url(#clip2_24_2)">
<g clip-path="url(#clip3_24_2)">
<rect x="349.9" y="99.9" width="42.6" height="22.6" rx="5.3" fill="#E3E3E3"/>
<rect x="349.9" y="99.9" width="42.6" height="22.6" rx="5.3" stroke="#666666" stroke-width="1.4" stroke-dasharray="4 3"/>
<text fill="#1A1A1A" style="white-space: pre" xml:space="preserve" font-family="Inter" font-size="9.5" font-weight="500" letter-spacing="0em"><tspan x="354.7" y="114.655">Tx1-3B</tspan></text>
<rect x="397.9" y="99.9" width="42.6" height="22.6" rx="5.3" fill="#E3E3E3"/>
<rect x="397.9" y="99.9" width="42.6" height="22.6" rx="5.3" stroke="#666666" stroke-width="1.4" stroke-dasharray="4 3"/>
<text fill="#1A1A1A" style="white-space: pre" xml:space="preserve" font-family="Inter" font-size="9.5" font-weight="500" letter-spacing="0em"><tspan x="403.7" y="114.655">ESM-2</tspan></text>
<rect x="445.9" y="99.9" width="42.6" height="22.6" rx="5.3" fill="#8DB6E6"/>
<rect x="445.9" y="99.9" width="42.6" height="22.6" rx="5.3" stroke="#2F64A8" stroke-width="1.4"/>
<text fill="#1A1A1A" style="white-space: pre" xml:space="preserve" font-family="Inter" font-size="9.5" font-weight="500" letter-spacing="0em"><tspan x="448.7" y="114.655">Adapter</tspan></text>
<rect x="493.9" y="99.9" width="42.6" height="22.6" rx="5.3" fill="#E3E3E3"/>
<rect x="493.9" y="99.9" width="42.6" height="22.6" rx="5.3" stroke="#666666" stroke-width="1.4" stroke-dasharray="4 3"/>
<text fill="#1A1A1A" style="white-space: pre" xml:space="preserve" font-family="Inter" font-size="9.5" font-weight="500" letter-spacing="0em"><tspan x="500.2" y="114.655">STATE</tspan></text>
<rect x="541.9" y="99.9" width="42.6" height="22.6" rx="5.3" fill="#8DB6E6"/>
<rect x="541.9" y="99.9" width="42.6" height="22.6" rx="5.3" stroke="#2F64A8" stroke-width="1.4"/>
<text fill="#1A1A1A" style="white-space: pre" xml:space="preserve" font-family="Inter" font-size="9.5" font-weight="500" letter-spacing="0em"><tspan x="551.2" y="114.655">Head</tspan></text>
</g>
</g>
<rect x="349.9" y="133.9" width="232.2" height="29.4" rx="1.3" fill="white"/>
<rect x="349.9" y="133.9" width="232.2" height="29.4" rx="1.3" stroke="#333333" stroke-width="1.4"/>
<text fill="#1A1A1A" style="white-space: pre" xml:space="preserve" font-family="Inter" font-size="13" font-weight="500" letter-spacing="0em"><tspan x="360.6" y="153.327">Huber</tspan></text>
<rect x="349.9" y="174.7" width="232.2" height="29.4" rx="1.3" fill="white"/>
<rect x="349.9" y="174.7" width="232.2" height="29.4" rx="1.3" stroke="#333333" stroke-width="1.4"/>
<text fill="#1A1A1A" style="white-space: pre" xml:space="preserve" font-family="Inter" font-size="13" font-weight="500" letter-spacing="0em"><tspan x="360.6" y="194.127">standardised MSE</tspan></text>
<rect x="349.9" y="215.5" width="232.2" height="60.4" rx="1.3" fill="white"/>
<rect x="349.9" y="215.5" width="232.2" height="60.4" rx="1.3" stroke="#333333" stroke-width="1.4"/>
<text fill="#1A1A1A" style="white-space: pre" xml:space="preserve" font-family="Inter" font-size="13" font-weight="500" letter-spacing="0em"><tspan x="360.6" y="234.927">standardised MSE + per-gene </tspan><tspan x="360.6" y="250.927">Pearson</tspan></text>
<text fill="#3A3A3A" style="white-space: pre" xml:space="preserve" font-family="Inter" font-size="11" letter-spacing="0em"><tspan x="360.6" y="266.7">gene-blocked batches</tspan></text>
<text fill="#3A3A3A" style="white-space: pre" xml:space="preserve" font-family="Inter" font-size="12" font-style="italic" letter-spacing="0em"><tspan x="349.2" y="298.464">winner: validation selective-gene </tspan><tspan x="349.2" y="313.464">Spearman</tspan></text>
<rect x="640.6" y="24.6" width="266.8" height="328.8" rx="17.4" fill="#FBFBFB"/>
<rect x="640.6" y="24.6" width="266.8" height="328.8" rx="17.4" stroke="#9A9A9A" stroke-width="1.2" stroke-dasharray="8 6"/>
<text fill="#1A1A1A" style="white-space: pre" xml:space="preserve" font-family="Inter" font-size="18" font-weight="bold" letter-spacing="0em"><tspan x="657.2" y="58.7455">STATE screen</tspan></text>
<text fill="#3A3A3A" style="white-space: pre" xml:space="preserve" font-family="Inter" font-size="13" letter-spacing="0em"><tspan x="657.2" y="85.9273">winning objective, three settings</tspan></text>
<g clip-path="url(#clip4_24_2)">
<text fill="#1A1A1A" style="white-space: pre" xml:space="preserve" font-family="Inter" font-size="12" font-weight="500" letter-spacing="0em"><tspan x="657.2" y="111.064">STATE frozen</tspan></text>
<g clip-path="url(#clip5_24_2)">
<rect x="657.9" y="118.9" width="42.6" height="22.6" rx="5.3" fill="#E3E3E3"/>
<rect x="657.9" y="118.9" width="42.6" height="22.6" rx="5.3" stroke="#666666" stroke-width="1.4" stroke-dasharray="4 3"/>
<text fill="#1A1A1A" style="white-space: pre" xml:space="preserve" font-family="Inter" font-size="9.5" font-weight="500" letter-spacing="0em"><tspan x="662.7" y="133.655">Tx1-3B</tspan></text>
<rect x="705.9" y="118.9" width="42.6" height="22.6" rx="5.3" fill="#E3E3E3"/>
<rect x="705.9" y="118.9" width="42.6" height="22.6" rx="5.3" stroke="#666666" stroke-width="1.4" stroke-dasharray="4 3"/>
<text fill="#1A1A1A" style="white-space: pre" xml:space="preserve" font-family="Inter" font-size="9.5" font-weight="500" letter-spacing="0em"><tspan x="711.7" y="133.655">ESM-2</tspan></text>
<rect x="753.9" y="118.9" width="42.6" height="22.6" rx="5.3" fill="#8DB6E6"/>
<rect x="753.9" y="118.9" width="42.6" height="22.6" rx="5.3" stroke="#2F64A8" stroke-width="1.4"/>
<text fill="#1A1A1A" style="white-space: pre" xml:space="preserve" font-family="Inter" font-size="9.5" font-weight="500" letter-spacing="0em"><tspan x="756.7" y="133.655">Adapter</tspan></text>
<rect x="801.9" y="118.9" width="42.6" height="22.6" rx="5.3" fill="#E3E3E3"/>
<rect x="801.9" y="118.9" width="42.6" height="22.6" rx="5.3" stroke="#666666" stroke-width="1.4" stroke-dasharray="4 3"/>
<text fill="#1A1A1A" style="white-space: pre" xml:space="preserve" font-family="Inter" font-size="9.5" font-weight="500" letter-spacing="0em"><tspan x="808.2" y="133.655">STATE</tspan></text>
<rect x="849.9" y="118.9" width="42.6" height="22.6" rx="5.3" fill="#8DB6E6"/>
<rect x="849.9" y="118.9" width="42.6" height="22.6" rx="5.3" stroke="#2F64A8" stroke-width="1.4"/>
<text fill="#1A1A1A" style="white-space: pre" xml:space="preserve" font-family="Inter" font-size="9.5" font-weight="500" letter-spacing="0em"><tspan x="859.2" y="133.655">Head</tspan></text>
</g>
</g>
<g clip-path="url(#clip6_24_2)">
<text fill="#1A1A1A" style="white-space: pre" xml:space="preserve" font-family="Inter" font-size="12" font-weight="500" letter-spacing="0em"><tspan x="657.2" y="164.064">STATE fine-tuned</tspan></text>
<g clip-path="url(#clip7_24_2)">
<rect x="657.9" y="171.9" width="42.6" height="22.6" rx="5.3" fill="#E3E3E3"/>
<rect x="657.9" y="171.9" width="42.6" height="22.6" rx="5.3" stroke="#666666" stroke-width="1.4" stroke-dasharray="4 3"/>
<text fill="#1A1A1A" style="white-space: pre" xml:space="preserve" font-family="Inter" font-size="9.5" font-weight="500" letter-spacing="0em"><tspan x="662.7" y="186.655">Tx1-3B</tspan></text>
<rect x="705.9" y="171.9" width="42.6" height="22.6" rx="5.3" fill="#E3E3E3"/>
<rect x="705.9" y="171.9" width="42.6" height="22.6" rx="5.3" stroke="#666666" stroke-width="1.4" stroke-dasharray="4 3"/>
<text fill="#1A1A1A" style="white-space: pre" xml:space="preserve" font-family="Inter" font-size="9.5" font-weight="500" letter-spacing="0em"><tspan x="711.7" y="186.655">ESM-2</tspan></text>
<rect x="753.9" y="171.9" width="42.6" height="22.6" rx="5.3" fill="#8DB6E6"/>
<rect x="753.9" y="171.9" width="42.6" height="22.6" rx="5.3" stroke="#2F64A8" stroke-width="1.4"/>
<text fill="#1A1A1A" style="white-space: pre" xml:space="preserve" font-family="Inter" font-size="9.5" font-weight="500" letter-spacing="0em"><tspan x="756.7" y="186.655">Adapter</tspan></text>
<rect x="801.9" y="171.9" width="42.6" height="22.6" rx="5.3" fill="#8DB6E6"/>
<rect x="801.9" y="171.9" width="42.6" height="22.6" rx="5.3" stroke="#2F64A8" stroke-width="1.4"/>
<text fill="#1A1A1A" style="white-space: pre" xml:space="preserve" font-family="Inter" font-size="9.5" font-weight="500" letter-spacing="0em"><tspan x="808.2" y="186.655">STATE</tspan></text>
<rect x="849.9" y="171.9" width="42.6" height="22.6" rx="5.3" fill="#8DB6E6"/>
<rect x="849.9" y="171.9" width="42.6" height="22.6" rx="5.3" stroke="#2F64A8" stroke-width="1.4"/>
<text fill="#1A1A1A" style="white-space: pre" xml:space="preserve" font-family="Inter" font-size="9.5" font-weight="500" letter-spacing="0em"><tspan x="859.2" y="186.655">Head</tspan></text>
</g>
</g>
<g clip-path="url(#clip8_24_2)">
<text fill="#1A1A1A" style="white-space: pre" xml:space="preserve" font-family="Inter" font-size="12" font-weight="500" letter-spacing="0em"><tspan x="657.2" y="217.064">no STATE</tspan></text>
<g clip-path="url(#clip9_24_2)">
<rect x="657.9" y="224.9" width="42.6" height="22.6" rx="5.3" fill="#E3E3E3"/>
<rect x="657.9" y="224.9" width="42.6" height="22.6" rx="5.3" stroke="#666666" stroke-width="1.4" stroke-dasharray="4 3"/>
<text fill="#1A1A1A" style="white-space: pre" xml:space="preserve" font-family="Inter" font-size="9.5" font-weight="500" letter-spacing="0em"><tspan x="662.7" y="239.655">Tx1-3B</tspan></text>
<rect x="705.9" y="224.9" width="42.6" height="22.6" rx="5.3" fill="#E3E3E3"/>
<rect x="705.9" y="224.9" width="42.6" height="22.6" rx="5.3" stroke="#666666" stroke-width="1.4" stroke-dasharray="4 3"/>
<text fill="#1A1A1A" style="white-space: pre" xml:space="preserve" font-family="Inter" font-size="9.5" font-weight="500" letter-spacing="0em"><tspan x="711.7" y="239.655">ESM-2</tspan></text>
<rect x="753.9" y="224.9" width="42.6" height="22.6" rx="5.3" fill="white"/>
<rect x="753.9" y="224.9" width="42.6" height="22.6" rx="5.3" stroke="#C4C4C4" stroke-width="1.4" stroke-dasharray="2 3"/>
<text fill="#A8A8A8" style="white-space: pre" xml:space="preserve" font-family="Inter" font-size="9.5" font-weight="500" letter-spacing="0em"><tspan x="756.7" y="239.655">Adapter</tspan></text>
<rect x="801.9" y="224.9" width="42.6" height="22.6" rx="5.3" fill="white"/>
<rect x="801.9" y="224.9" width="42.6" height="22.6" rx="5.3" stroke="#C4C4C4" stroke-width="1.4" stroke-dasharray="2 3"/>
<text fill="#A8A8A8" style="white-space: pre" xml:space="preserve" font-family="Inter" font-size="9.5" font-weight="500" letter-spacing="0em"><tspan x="808.2" y="239.655">STATE</tspan></text>
<rect x="849.9" y="224.9" width="42.6" height="22.6" rx="5.3" fill="#8DB6E6"/>
<rect x="849.9" y="224.9" width="42.6" height="22.6" rx="5.3" stroke="#2F64A8" stroke-width="1.4"/>
<text fill="#1A1A1A" style="white-space: pre" xml:space="preserve" font-family="Inter" font-size="9.5" font-weight="500" letter-spacing="0em"><tspan x="859.2" y="239.655">Head</tspan></text>
</g>
</g>
<path d="M328 189L320 184.381V193.619L328 189ZM296 189V189.8H320.8V189V188.2H296V189Z" fill="#2B2B2B"/>
<path d="M636 189L628 184.381V193.619L636 189ZM604 189V189.8H628.8V189V188.2H604V189Z" fill="#2B2B2B"/>
<rect x="24.7" y="378.7" width="882.6" height="195.2" rx="9.3" fill="white"/>
<rect x="24.7" y="378.7" width="882.6" height="195.2" rx="9.3" stroke="#333333" stroke-width="1.4"/>
<text fill="#1A1A1A" style="white-space: pre" xml:space="preserve" font-family="Inter" font-size="16" font-weight="bold" letter-spacing="0em"><tspan x="43.4" y="408.718">Every training run (one variant, seed 0)</tspan></text>
<g clip-path="url(#clip10_24_2)">
<rect x="44.1" y="423.1" width="54.4" height="31.4" rx="5.3" fill="#8DB6E6"/>
<rect x="44.1" y="423.1" width="54.4" height="31.4" rx="5.3" stroke="#2F64A8" stroke-width="1.4"/>
<text fill="#1A1A1A" style="white-space: pre" xml:space="preserve" font-family="Inter" font-size="13" font-weight="500" letter-spacing="0em"><tspan x="56.8" y="443.527">train</tspan></text>
<path d="M135.2 438.8L127.2 434.181V443.419L135.2 438.8ZM109.2 438.8V439.6H128V438.8V438H109.2V438.8Z" fill="#2B2B2B"/>
<rect x="145.9" y="423.1" width="150.4" height="31.4" rx="1.3" fill="white"/>
<rect x="145.9" y="423.1" width="150.4" height="31.4" rx="1.3" stroke="#333333" stroke-width="1.4"/>
<text fill="#1A1A1A" style="white-space: pre" xml:space="preserve" font-family="Inter" font-size="13" font-weight="500" letter-spacing="0em"><tspan x="158.6" y="443.527">validate each epoch</tspan></text>
<path d="M333 438.8L325 434.181V443.419L333 438.8ZM307 438.8V439.6H325.8V438.8V438H307V438.8Z" fill="#2B2B2B"/>
<rect x="343.7" y="423.1" width="126.4" height="31.4" rx="1.3" fill="white"/>
<rect x="343.7" y="423.1" width="126.4" height="31.4" rx="1.3" stroke="#333333" stroke-width="1.4"/>
<text fill="#1A1A1A" style="white-space: pre" xml:space="preserve" font-family="Inter" font-size="13" font-weight="500" letter-spacing="0em"><tspan x="356.4" y="443.527">best checkpoint</tspan></text>
<path d="M506.8 438.8L498.8 434.181V443.419L506.8 438.8ZM480.8 438.8V439.6H499.6V438.8V438H480.8V438.8Z" fill="#2B2B2B"/>
<rect x="517.5" y="423.1" width="117.4" height="31.4" rx="5.3" fill="#F1E08F"/>
<rect x="517.5" y="423.1" width="117.4" height="31.4" rx="5.3" stroke="#C7A21E" stroke-width="1.4"/>
<text fill="#1A1A1A" style="white-space: pre" xml:space="preserve" font-family="Inter" font-size="13" font-weight="500" letter-spacing="0em"><tspan x="530.2" y="443.527">test evaluation</tspan></text>
</g>
<text fill="#3A3A3A" style="white-space: pre" xml:space="preserve" font-family="Inter" font-size="13" letter-spacing="0em"><tspan x="43.4" y="477.927">&#x2022;  AdamW; learning rate: head 1e-3, adapter 1e-4, STATE 1e-5 (only when fine-tuned)</tspan></text>
<text fill="#3A3A3A" style="white-space: pre" xml:space="preserve" font-family="Inter" font-size="13" letter-spacing="0em"><tspan x="43.4" y="503.927">&#x2022;  1-epoch linear warm-up, then cosine decay over at most 30 epochs</tspan></text>
<text fill="#3A3A3A" style="white-space: pre" xml:space="preserve" font-family="Inter" font-size="13" letter-spacing="0em"><tspan x="43.4" y="529.927">&#x2022;  best checkpoint: highest validation selective-gene Spearman; stop after 5 epochs without improvement</tspan></text>
<text fill="#3A3A3A" style="white-space: pre" xml:space="preserve" font-family="Inter" font-size="13" letter-spacing="0em"><tspan x="43.4" y="555.927">&#x2022;  test: the 27 test lines, scored once with that run&#x2019;s best checkpoint</tspan></text>
<g clip-path="url(#clip11_24_2)">
<text fill="#1A1A1A" style="white-space: pre" xml:space="preserve" font-family="Inter" font-size="16" font-weight="bold" letter-spacing="0em"><tspan x="24" y="610.418">Legend</tspan></text>
<g clip-path="url(#clip12_24_2)">
<rect x="105.7" y="595.3" width="32.6" height="18.6" rx="4.3" fill="#E3E3E3" stroke="#666666" stroke-width="1.4" stroke-dasharray="4 3"/>
<text fill="#1A1A1A" style="white-space: pre" xml:space="preserve" font-family="Inter" font-size="14" letter-spacing="0em"><tspan x="147" y="609.691">Frozen</tspan></text>
</g>
<g clip-path="url(#clip13_24_2)">
<rect x="215.7" y="595.3" width="32.6" height="18.6" rx="4.3" fill="#8DB6E6" stroke="#2F64A8" stroke-width="1.4"/>
<text fill="#1A1A1A" style="white-space: pre" xml:space="preserve" font-family="Inter" font-size="14" letter-spacing="0em"><tspan x="257" y="609.691">Trained</tspan></text>
</g>
<g clip-path="url(#clip14_24_2)">
<rect x="329.7" y="595.3" width="32.6" height="18.6" rx="4.3" fill="white" stroke="#C4C4C4" stroke-width="1.4" stroke-dasharray="2 3"/>
<text fill="#1A1A1A" style="white-space: pre" xml:space="preserve" font-family="Inter" font-size="14" letter-spacing="0em"><tspan x="371" y="609.691">Not used</tspan></text>
</g>
<g clip-path="url(#clip15_24_2)">
<rect x="454.7" y="595.3" width="32.6" height="18.6" rx="1.3" fill="white" stroke="#333333" stroke-width="1.4"/>
<text fill="#1A1A1A" style="white-space: pre" xml:space="preserve" font-family="Inter" font-size="14" letter-spacing="0em"><tspan x="496" y="609.691">Fitted or fixed step</tspan></text>
</g>
<g clip-path="url(#clip16_24_2)">
<rect x="644.7" y="595.3" width="32.6" height="18.6" rx="4.3" fill="#F1E08F" stroke="#C7A21E" stroke-width="1.4"/>
<text fill="#1A1A1A" style="white-space: pre" xml:space="preserve" font-family="Inter" font-size="14" letter-spacing="0em"><tspan x="686" y="609.691">Test split</tspan></text>
</g>
</g>
<defs>
<clipPath id="clip0_24_2">
<rect width="236" height="43" fill="white" transform="translate(41.2 99.2)"/>
</clipPath>
<clipPath id="clip1_24_2">
<rect width="236" height="24" fill="white" transform="translate(41.2 118.2)"/>
</clipPath>
<clipPath id="clip2_24_2">
<rect width="236" height="24" fill="white" transform="translate(349.2 99.2)"/>
</clipPath>
<clipPath id="clip3_24_2">
<rect width="236" height="24" fill="white" transform="translate(349.2 99.2)"/>
</clipPath>
<clipPath id="clip4_24_2">
<rect width="236" height="43" fill="white" transform="translate(657.2 99.2)"/>
</clipPath>
<clipPath id="clip5_24_2">
<rect width="236" height="24" fill="white" transform="translate(657.2 118.2)"/>
</clipPath>
<clipPath id="clip6_24_2">
<rect width="236" height="43" fill="white" transform="translate(657.2 152.2)"/>
</clipPath>
<clipPath id="clip7_24_2">
<rect width="236" height="24" fill="white" transform="translate(657.2 171.2)"/>
</clipPath>
<clipPath id="clip8_24_2">
<rect width="236" height="43" fill="white" transform="translate(657.2 205.2)"/>
</clipPath>
<clipPath id="clip9_24_2">
<rect width="236" height="24" fill="white" transform="translate(657.2 224.2)"/>
</clipPath>
<clipPath id="clip10_24_2">
<rect width="592.2" height="32.8" fill="white" transform="translate(43.4 422.4)"/>
</clipPath>
<clipPath id="clip11_24_2">
<rect width="722" height="20" fill="white" transform="translate(24 594.6)"/>
</clipPath>
<clipPath id="clip12_24_2">
<rect width="88" height="20" fill="white" transform="translate(105 594.6)"/>
</clipPath>
<clipPath id="clip13_24_2">
<rect width="92" height="20" fill="white" transform="translate(215 594.6)"/>
</clipPath>
<clipPath id="clip14_24_2">
<rect width="103" height="20" fill="white" transform="translate(329 594.6)"/>
</clipPath>
<clipPath id="clip15_24_2">
<rect width="168" height="20" fill="white" transform="translate(454 594.6)"/>
</clipPath>
<clipPath id="clip16_24_2">
<rect width="102" height="20" fill="white" transform="translate(644 594.6)"/>
</clipPath>
</defs>
</svg>
